# xmcd
#
# Track frame offsets:
#	150
#	23579
#	47722
#	79633
#	103004
#	127146
#	150452
#	175726
#	198464
#	209942
#	247021
#	275464
#	313827
#
# Disc length: 4394 seconds
#
# Revision: 0
# Processed by: cddbd v1.5.2PL0 Copyright (c) Steve Scherf et al.
# Submitted via: dBpowerAMP V4.0
#
DISCID=b911280d
DTITLE=Rory Gallagher - I'm ready (for jazz times)
DYEAR=1990
DGENRE=Blues-Rock
TTITLE0=I'm ready (for jazz times) CD 1 01 Continental OP
TTITLE1=I'm ready (for jazz times) CD 1 02 Don't start me talkin'
TTITLE2=I'm ready (for jazz times) CD 1 03 Mean disposition
TTITLE3=I'm ready (for jazz times) CD 1 04 Kid gloves
TTITLE4=I'm ready (for jazz times) CD 1 05 Middle name
TTITLE5=I'm ready (for jazz times) CD 1 06 King of Zydeco
TTITLE6=I'm ready (for jazz times) CD 1 07 Out of western pain
TTITLE7=I'm ready (for jazz times) CD 1 08 Empire state express
TTITLE8=I'm ready (for jazz times) CD 1 09 The loop
TTITLE9=I'm ready (for jazz times) CD 1 10 Garbage man
TTITLE10=I'm ready (for jazz times) CD 1 11 My baby left me
TTITLE11=I'm ready (for jazz times) CD 1 12 Walk on hot coals
TTITLE12=I'm ready (for jazz times) CD 1 13 Banker's blues
EXTD=
EXTT0=
EXTT1=
EXTT2=
EXTT3=
EXTT4=
EXTT5=
EXTT6=
EXTT7=
EXTT8=
EXTT9=
EXTT10=
EXTT11=
EXTT12=
PLAYORDER=
